<svg fill="#000000" xmlns="http://www.w3.org/2000/svg" xmlns:xlink="http://www.w3.org/1999/xlink" version="1.1" x="0px" y="0px" viewBox="0 0 100 100" enable-background="new 0 0 100 100" xml:space="preserve"><path fill="#000000" d="M67.651,41.465v-3.977c0-3.815-3.076-6.919-6.857-6.919h-0.86c-1.051,0-2.047,0.236-2.939,0.657V12.419  c0-3.815-3.076-6.919-6.857-6.919h-0.859c-3.798,0-6.888,3.09-6.888,6.886l-0.023,19.358c-0.878-0.413-1.855-0.645-2.886-0.645  h-0.86c-3.648,0-6.641,2.851-6.872,6.438c-0.896-0.427-1.898-0.667-2.955-0.667h-0.859c-3.798,0-6.888,3.09-6.888,6.888v6.581v5.77  v9.857c0,0.006,0.001,0.013,0.001,0.019c0,0.006-0.001,0.013-0.001,0.019c0,15.965,12.989,28.954,28.954,28.954  c15.965,0,28.954-12.989,28.954-28.954V51.718C78.954,51.62,78.815,42.443,67.651,41.465z M59.934,34.549h0.86  c1.587,0,2.878,1.319,2.878,2.939v3.891h-6.677V38.86v-1.372C56.995,35.895,58.341,34.549,59.934,34.549z M63.619,56.651  c-0.255,1.345-1.438,2.367-2.856,2.367h-0.86c-1.604,0-2.908-1.305-2.908-2.909v-1.245C59.003,55.971,61.258,56.584,63.619,56.651z   M38.621,35.079h0.86c1.587,0,2.878,1.318,2.878,2.939v12.315c0,0.002,0,0.003,0,0.005v5.77c0,1.604-1.305,2.909-2.908,2.909h-0.86  c-1.597,0-2.896-1.294-2.907-2.889l0.03-18.142C35.713,36.384,37.018,35.079,38.621,35.079z M25.026,43.758  c0-1.604,1.305-2.908,2.909-2.908h0.859c1.604,0,2.908,1.305,2.908,2.908v3.861v8.49c0,1.604-1.305,2.909-2.908,2.909h-0.86  c-1.604,0-2.908-1.305-2.908-2.909v-5.77V43.758z M74.974,66.005c0,13.771-11.203,24.974-24.974,24.974S25.026,79.775,25.026,66.005  c0-0.006-0.001-0.013-0.001-0.019c0-0.006,0.001-0.013,0.001-0.019v-3.615c0.884,0.414,1.869,0.646,2.908,0.646h0.86  c1.915,0,3.649-0.786,4.898-2.051c1.25,1.265,2.984,2.051,4.898,2.051h0.86c3.798,0,6.888-3.09,6.888-6.888v-2.436  c0-0.003,0-0.008,0-0.011v-14.8l0.031-26.474c0-1.604,1.305-2.909,2.908-2.909h0.859c1.587,0,2.878,1.319,2.878,2.939v25.069v1.372  v2.519h-3.423v1.99c0,2.766,1.27,5.82,3.423,8.281v4.46c0,0.377,0.032,0.746,0.09,1.106c-5.764,4.24-9.512,11.068-9.512,18.756  c0,1.099,0.891,1.99,1.99,1.99c1.099,0,1.99-0.891,1.99-1.99c0-6.125,2.873-11.587,7.338-15.124c1.256,1.323,3.029,2.15,4.993,2.15  h0.86c3.659,0,6.66-2.869,6.875-6.476c0.717-0.301,1.22-1.009,1.22-1.835c0-0.002,0-0.005,0-0.007c0-0.002,0-0.005,0-0.007  c0-1.099-0.891-1.99-1.99-1.99h-2.817c-3.781,0-6.285-1.795-7.72-3.302c-1.142-1.198-1.993-2.629-2.43-4.022h11.761  c8.925,0,9.3,5.726,9.313,6.359V66.005z"></path></svg>
